<?xml version="1.0" encoding="UTF-8" standalone="no"?>
<!-- Created with Inkscape (http://www.inkscape.org/) -->

<svg
   xmlns:dc="http://purl.org/dc/elements/1.1/"
   xmlns:cc="http://creativecommons.org/ns#"
   xmlns:rdf="http://www.w3.org/1999/02/22-rdf-syntax-ns#"
   xmlns:svg="http://www.w3.org/2000/svg"
   xmlns="http://www.w3.org/2000/svg"
   xmlns:sodipodi="http://sodipodi.sourceforge.net/DTD/sodipodi-0.dtd"
   xmlns:inkscape="http://www.inkscape.org/namespaces/inkscape"
   id="svg2"
   version="1.1"
   inkscape:version="0.48.4 r9939"
   width="80"
   height="80"
   sodipodi:docname="boxSlide.png"
   inkscape:export-filename="C:\Users\Michal\Documents\git\robbo\graphics2\boxSlide.png"
   inkscape:export-xdpi="90"
   inkscape:export-ydpi="90">
  <metadata
     id="metadata8">
    <rdf:RDF>
      <cc:Work
         rdf:about="">
        <dc:format>image/svg+xml</dc:format>
        <dc:type
           rdf:resource="http://purl.org/dc/dcmitype/StillImage" />
        <dc:title></dc:title>
      </cc:Work>
    </rdf:RDF>
  </metadata>
  <defs
     id="defs6">
    <filter
       inkscape:collect="always"
       id="filter4661">
      <feGaussianBlur
         inkscape:collect="always"
         stdDeviation="0.18812521"
         id="feGaussianBlur4663" />
    </filter>
    <filter
       inkscape:collect="always"
       id="filter4705">
      <feGaussianBlur
         inkscape:collect="always"
         stdDeviation="0.21319009"
         id="feGaussianBlur4707" />
    </filter>
    <filter
       inkscape:collect="always"
       id="filter4860"
       x="-0.018747131"
       width="1.0374943"
       y="-0.45165899"
       height="1.903318">
      <feGaussianBlur
         inkscape:collect="always"
         stdDeviation="0.5010308"
         id="feGaussianBlur4862" />
    </filter>
    <filter
       inkscape:collect="always"
       id="filter4868">
      <feGaussianBlur
         inkscape:collect="always"
         stdDeviation="0.51680412"
         id="feGaussianBlur4870" />
    </filter>
    <filter
       inkscape:collect="always"
       id="filter4904">
      <feGaussianBlur
         inkscape:collect="always"
         stdDeviation="0.92928525"
         id="feGaussianBlur4906" />
    </filter>
    <filter
       inkscape:collect="always"
       id="filter5100"
       x="-0.54800243"
       width="2.0960049"
       y="-0.48070385"
       height="1.9614077">
      <feGaussianBlur
         inkscape:collect="always"
         stdDeviation="3.8700735"
         id="feGaussianBlur5102" />
    </filter>
    <filter
       inkscape:collect="always"
       id="filter5558"
       x="-0.96672102"
       width="2.933442"
       y="-0.64448069"
       height="2.2889614">
      <feGaussianBlur
         inkscape:collect="always"
         stdDeviation="5.0206073"
         id="feGaussianBlur5560" />
    </filter>
  </defs>
  <sodipodi:namedview
     pagecolor="#ffffff"
     bordercolor="#666666"
     borderopacity="1"
     objecttolerance="10"
     gridtolerance="10"
     guidetolerance="10"
     inkscape:pageopacity="0"
     inkscape:pageshadow="2"
     inkscape:window-width="2560"
     inkscape:window-height="1017"
     id="namedview4"
     showgrid="false"
     inkscape:zoom="2.085965"
     inkscape:cx="63.961699"
     inkscape:cy="38.131516"
     inkscape:window-x="-8"
     inkscape:window-y="-8"
     inkscape:window-maximized="1"
     inkscape:current-layer="svg2" />
  <path
     style="fill:#ffffff;fill-opacity:1;stroke:none;filter:url(#filter4661)"
     d="m -17.807514,-7.6834631 c -0.294978,-0.0949 -0.827525,-0.470758 -1.183437,-0.835246 -0.842401,-0.862696 -0.837897,-1.480183 0.02332,-3.1962179 0.874992,-1.743493 1.278119,-2.296467 1.462305,-2.005861 0.231351,0.365024 0.171323,1.902414 -0.104843,2.685151 -0.390695,1.1073479 -0.336623,1.6719829 0.178887,1.8679789 0.238218,0.09057 1.553896,0.242735 2.923728,0.338144 3.916044,0.272752 5.7503413,0.503155 6.7857653,0.852349 0.714678,0.241024 0.807909,0.303694 0.365857,0.245934 -1.972343,-0.257716 -3.3036803,-0.261484 -6.1944083,-0.01753 -3.609913,0.304649 -3.517575,0.303233 -4.25717,0.0653 l 0,0 z"
     id="path4051"
     inkscape:connector-curvature="0" />
  <path
     style="fill:#ffffff;fill-opacity:1;stroke:none"
     d="m -11.423732,29.729697 c 0.602259,-0.7464 5.3367623,-2.603713 5.7031623,-2.237312 0.379215,0.379215 -1.471893,1.329167 -3.686389,1.891783 -0.8761753,0.2226 -1.7455873,0.462302 -1.9320273,0.532671 -0.311777,0.117673 -0.318579,0.102654 -0.08475,-0.187142 z"
     id="path4053"
     inkscape:connector-curvature="0" />
  <g
     id="g5562"
     transform="matrix(0.98074396,0,0,0.97077878,0.82295971,1.0598605)">
    <path
       inkscape:connector-curvature="0"
       id="path4029"
       d="M 37.521583,3.7285217 C 35.869775,4.4105257 27.6152,15.478174 22.57503,23.902601 c -1.491231,2.49253 -3.05884,5.001379 -3.427238,5.576576 -1.654156,2.5827 -5.902473,13.695483 -5.902473,15.499598 0,3.518879 1.71247,1.698889 5.045662,-5.494567 1.764637,-3.808278 3.695596,-7.411123 4.284049,-8.036828 0.588438,-0.625711 1.337039,-2.152737 1.713619,-3.444356 0.37659,-1.291624 3.652515,-7.259639 7.23527,-13.20336 3.582765,-5.9437207 6.348312,-10.9034247 6.188075,-11.0711423 -0.04848,-0.050785 -0.08041,-0.045475 -0.190411,0 z m 13.994554,0.4920518 c -0.947344,0.037259 -7.487089,7.7230055 -11.900127,14.1054545 -2.78398,4.026392 -5.676208,8.062262 -6.378473,9.020928 -3.001092,4.096958 -13.352849,24.416611 -12.947334,25.422621 0.879474,2.181742 2.2443,0.893145 6.188064,-5.986617 2.215489,-3.864863 5.782952,-9.590727 7.901682,-12.71131 2.118743,-3.12058 4.031773,-6.283184 4.284047,-7.052726 0.252248,-0.76954 3.180848,-5.784627 6.47368,-11.153151 C 48.430507,10.49725 51.33768,5.4795561 51.61134,4.7126238 51.72951,4.381236 51.651236,4.2152515 51.516269,4.2205735 z m 2.856028,7.1347355 c -0.802696,0 -4.573965,5.766433 -7.711281,11.727209 -1.086082,2.063555 -2.639615,4.443729 -3.427238,5.24854 -0.787625,0.804805 -1.660582,2.232037 -1.904017,3.198329 -0.24341,0.9663 -1.282183,3.339838 -2.284825,5.248543 -2.363605,4.49959 -4.474443,10.557699 -4.474443,12.629302 0,3.17311 1.95867,1.639786 4.284046,-3.362347 1.29241,-2.780128 3.665042,-7.102461 5.236049,-9.59499 C 50.265248,26.65326 56.514912,11.355309 54.372165,11.355309 z M 12.483716,47.028986 c -0.890292,0.172914 -1.868831,2.351003 -4.2840474,8.774906 -1.6263419,4.325713 -3.3038909,8.457517 -3.7128404,9.184946 -0.4089491,0.727427 -0.5287983,1.775262 -0.2854513,2.378244 0.5986274,1.485014 2.2564561,1.410515 3.1416338,-0.164017 0.3978268,-0.707655 2.111294,-5.302894 3.8080453,-10.169046 2.347419,-6.732289 2.933889,-8.977109 2.284826,-9.59499 -0.328353,-0.312582 -0.655226,-0.46768 -0.952015,-0.410043 z m 7.711284,6.88871 c -0.34455,-0.01601 -0.82954,0.176456 -1.332811,0.574061 -1.579062,1.24755 -5.772208,11.709302 -5.236062,13.039343 0.25529,0.633288 -0.01262,1.680626 -0.571205,2.296238 -1.264788,1.390801 -2.146279,4.564791 -1.428017,5.248539 0.700929,0.667252 4.569651,-3.77985 4.569651,-5.248539 0,-0.623998 0.80179,-1.449392 1.808824,-1.886197 1.437307,-0.623414 1.904017,-1.31279 1.904017,-3.198329 0,-1.321095 0.382689,-4.031233 0.856809,-5.986618 0.727643,-3.0008 0.462441,-4.790587 -0.571206,-4.838498 z M 4.0108275,69.991353 c -0.1108476,-0.01576 -0.2233111,0.03206 -0.3808082,0.08202 -0.541992,0.17181 -1.0984521,0.87471 -1.2376177,1.558159 -0.1617644,0.794828 0.1313002,1.101904 0.7616168,0.902094 0.5419793,-0.171812 1.0984519,-0.874713 1.2376045,-1.55816 0.121579,-0.596122 -0.048101,-0.936853 -0.3807954,-0.984103 z"
       style="fill:#9bc2dd;filter:url(#filter4904)" />
    <path
       inkscape:connector-curvature="0"
       id="path4025"
       d="m 29.599096,45.270676 c -0.295311,-0.0202 -0.999237,0.649732 -1.558877,1.422586 0.564528,-0.464842 1.121217,-0.898069 1.67605,-1.33309 -0.02034,-0.05791 -0.06105,-0.08565 -0.117101,-0.0895 z m 10.925327,25.376052 -0.790241,1.198661 -0.793891,1.240934 -0.80197,-0.837835 -0.80199,-0.837837 -0.651183,1.034525 c -0.761694,1.167619 -4.299893,3.434401 -5.288298,3.395076 -0.353399,-0.01407 -1.087685,0.305671 -1.621375,0.699006 l -0.933187,0.683967 6.179077,0.03375 c 9.996068,0.03717 11.201027,-0.03244 11.563483,-0.854882 0.274006,-0.621836 0.427127,-0.657938 1.332348,-0.243912 0.695707,0.318203 4.639928,0.655778 11.900944,1.024908 10.414837,0.52946 10.926384,0.521525 13.002353,-0.161376 2.825398,-0.929412 3.984257,-2.195408 3.176083,-3.521528 -0.718407,-1.178845 -1.153832,-1.254532 -1.607071,-0.191189 -0.324455,0.761189 -0.615796,0.814385 -3.997084,0.731737 -2.894934,-0.07076 -3.615297,-0.180588 -4.429595,-0.770074 -0.03949,-0.01711 -0.08179,-0.02973 -0.120879,-0.04722 -0.695627,-0.311114 -1.286507,-0.652723 -1.614633,-0.827751 l -0.05486,-0.08702 c -0.129467,0.1977 -0.29968,0.524895 -0.46086,0.99968 -0.468937,1.381245 -0.426448,1.362836 -6.160046,1.918204 -3.1152,0.30174 -4.706753,0.291769 -6.552483,-0.0486 -3.42228,-0.631106 -8.116028,-2.406366 -9.372414,-3.554183 L 40.524444,70.646733 z M 26.813914,76.12451 c -0.989123,0.09771 -4.434742,0.992015 -4.857122,1.291364 -0.735742,0.521419 3.451945,-0.08645 4.36319,-0.632339 0.489244,-0.293104 0.820501,-0.5835 0.742843,-0.649121 -0.02554,-0.02159 -0.107719,-0.02386 -0.248911,-0.0099 z M 15.158511,75.872883 c -0.508356,0.04806 -0.559224,0.37802 -0.01796,0.932467 0.369757,0.37872 1.305159,0.579543 2.756656,0.618681 l 2.243951,0.04686 -2.291886,-0.93953 C 16.653189,76.038802 15.66684,75.824821 15.158505,75.87288 z M 3.61663,75.75303 c -0.2943928,0.202201 -0.6660841,0.436089 -1.1198814,0.676539 0.2641915,0.199237 0.5035278,0.360558 0.7725466,0.45491 1.7497199,0.613654 6.0631585,0.654116 6.1132081,0.07355 0.052263,-0.604908 -1.6861058,-1.034678 -3.1776786,-0.8051 C 5.4002416,76.276765 4.4399244,76.105354 3.61663,75.753036 z"
       style="fill:#ffffff;fill-opacity:1" />
    <path
       transform="matrix(1.5321673,0,0,0.92235627,-42.205467,0.03696394)"
       inkscape:connector-curvature="0"
       id="path4049"
       d="m 76.162748,27.015211 c -0.197156,-0.876568 -0.482452,-4.135997 -0.623712,-7.125714 -0.146112,-3.092447 -0.438335,-4.295035 -1.289471,-5.306553 -0.221136,-0.262804 -0.532597,-0.947322 -0.692136,-1.521151 -0.485854,-1.747525 -0.09437,-2.883257 2.160409,-6.2675077 1.803568,-2.707021 1.636569,-3.16889 -1.051781,-2.908918 -0.879045,0.08501 -2.399111,0.165648 -3.377924,0.179203 -2.51078,0.03477 -2.580193,0.06151 -3.379834,1.301797 -0.805841,1.249907 -1.221646,1.465267 -2.348636,1.216438 -1.987352,-0.438791 -2.06814,-0.477891 -2.06814,-1.000943 0,-1.106442 -0.301197,-1.251241 -1.348692,-0.648379 l -0.653139,0.375899 -1.290003,-0.654772 c -1.244449,-0.63165 -1.333297,-0.651031 -2.516034,-0.548841 -0.674317,0.05826 -2.164971,0.336297 -3.312565,0.617856 -1.147594,0.281558 -2.336965,0.511925 -2.643048,0.511925 -0.306082,0 -1.655278,-0.22252 -2.998211,-0.494489 -2.807076,-0.568484 -5.18651,-0.861443 -6.996695,-0.861443 l -1.263273,0 -0.865244,1.087366 c -1.252048,1.57347 -1.587303,2.425106 -1.507894,3.830446 0.04921,0.870906 0.01362,1.124531 -0.149059,1.062107 -0.251516,-0.09652 -1.574787,-2.034918 -1.574787,-2.306837 0,-0.45284 1.426577,-3.047408 1.960871,-3.566308 0.493232,-0.479021 0.760239,-0.591685 1.637453,-0.690931 0.576467,-0.06522 1.311526,-0.228638 1.633462,-0.363152 0.477515,-0.199518 1.602852,-0.236264 6.10898,-0.199478 l 5.52364,0.04509 1.949153,-0.492731 c 2.478713,-0.6266 3.529068,-0.63737 4.686315,-0.04805 0.480017,0.244444 1.242729,0.593627 1.694915,0.775962 0.452189,0.182335 1.470465,0.603152 2.262838,0.935149 1.934112,0.810375 2.230427,0.79745 2.76853,-0.120755 0.235324,-0.401549 0.783568,-1.057968 1.218321,-1.45871 0.642527,-0.59226 0.874739,-0.710152 1.240788,-0.629935 2.811095,0.616035 3.885312,0.781206 5.111344,0.785917 1.71179,0.0066 4.924417,0.40966 5.432571,0.681616 0.717803,0.384157 0.104861,1.372908 -3.208868,5.176289 -0.874422,1.003629 -1.730646,2.1430577 -1.902722,2.5320637 -0.389752,0.881101 -0.280985,1.323295 0.764073,3.106281 1.403417,2.394389 1.365885,2.214756 1.316161,6.299278 -0.05313,4.364393 -0.240507,7.439403 -0.407956,6.694915 z"
       style="fill:#ffffff;fill-opacity:1;stroke:none;filter:url(#filter4868)" />
    <path
       inkscape:connector-curvature="0"
       id="path4027-1-1"
       d="m 0.70832191,0.27751511 c -0.09264,0.6004456 -0.046,1.05199019 0.1249999,1.89645419 C 1.1821018,3.8966801 1.4623419,4.0471459 1.9895719,2.6480829 1.7597919,2.2419122 1.5381419,1.8305074 1.3020718,1.4289337 1.0816018,1.053904 0.88487181,0.65941761 0.70832191,0.27751511 z M 0.61457191,3.59631 c -0.0478,-0.00238 -0.07813,-0.020178 -0.125,0.06773 -0.29532,0.5541894 -0.22425,18.559981 0.125,32.917026 0.41051989,16.87587 0.44405989,18.78201 0.40624989,26.956742 -0.0407,8.798312 0.5146001,13.733796 1.7812501,15.442556 0.24758,0.333993 1.02442,0.687188 1.75,0.812766 1.14259,0.197881 1.35038,0.177378 1.40625,-0.812766 0.0561,-0.994262 -0.15451,-1.295831 -1.46875,-1.896454 -2.14358,-0.979633 -2.35116,-2.056992 -1.96875,-9.617732 0.27829,-5.50182 0.26193,-5.782712 -0.34375,-7.92447 -0.44071,-1.558454 -0.6274,-3.088821 -0.625,-5.079788 0.006,-4.854673 0.418,-22.90424 0.59375,-26.076245 0.10113,-1.828102 0.03185,-3.608636 -0.15625,-4.537944 -0.25083,-1.23895 -0.22251,-1.747612 0.0625,-2.844682 0.58822,-2.264596 0.55499,-4.380139 -0.09375,-7.179433 C 1.5710919,12.152755 1.3195119,10.05464 1.3020718,8.201984 1.2783718,5.6869628 0.94929181,3.6129722 0.61457191,3.5963095 z"
       style="fill:#c8deec;fill-opacity:1" />
    <path
       inkscape:connector-curvature="0"
       id="path4027-1"
       d="m 0.08527552,0.278072 c -0.09264,0.60044558 -0.046,1.0519903 0.12499995,1.8964542 0.34878,1.7227108 0.62902,1.8731766 1.15625003,0.4741136 C 1.1367455,2.2424691 0.91509547,1.8310643 0.67902547,1.4294906 0.45855547,1.0544609 0.26182547,0.65997453 0.08527552,0.278072 z m -0.09375,3.3187949 c -0.0478,-0.00238 -0.07813,-0.020178 -0.125,0.06773 -0.29532002,0.5541894 -0.22425002,18.5599811 0.125,32.9170261 0.41051995,16.87587 0.44405995,18.78201 0.40624995,26.956742 -0.0407,8.798312 0.5146,13.733796 1.78125003,15.442556 0.24758,0.333993 1.02442,0.687188 1.75,0.812766 1.14259,0.197881 1.35038,0.177378 1.40625,-0.812766 0.0561,-0.994262 -0.15451,-1.295831 -1.46875,-1.896454 -2.14358,-0.979633 -2.35116,-2.056992 -1.96875,-9.617732 0.27829,-5.50182 0.26193,-5.782712 -0.34375,-7.92447 -0.44071,-1.558454 -0.62740003,-3.088821 -0.62500003,-5.079788 0.006,-4.854673 0.41800003,-22.90424 0.59375003,-26.076245 0.10113,-1.828102 0.03185,-3.608636 -0.15625,-4.537944 -0.25083,-1.23895 -0.22251,-1.747612 0.0625,-2.844682 0.58822,-2.264596 0.55499,-4.380139 -0.09375,-7.179433 -0.38723003,-1.670861 -0.63881003,-3.768976 -0.65625003,-5.6216321 -0.0237,-2.5150212 -0.35278,-4.5890118 -0.68749995,-4.6056745 z"
       style="fill:#8ab7d7;filter:url(#filter4705)" />
    <path
       inkscape:connector-curvature="0"
       id="path4027-1-1-3"
       d="m 80.654002,76.863133 c -0.590192,0.134466 -1.038886,0.092 -1.881515,-0.09083 -1.718967,-0.372908 -1.879537,-0.713826 -0.517367,-1.411529 0.411449,0.270068 0.827739,0.529925 1.234905,0.807913 0.380251,0.259619 0.778762,0.489281 1.163977,0.694449 z m -3.2796,0.226829 c 0.0044,0.05893 0.02323,0.09578 -0.06179,0.15658 -0.535961,0.383125 -18.353323,0.89811 -32.572341,0.947542 -16.713626,0.05811 -18.600905,0.08051 -26.68716,0.400822 C 9.3500141,78.939662 4.4438036,78.419348 2.700303,76.912855 2.3595222,76.618394 1.9776304,75.6712 1.8230798,74.77967 1.5795796,73.375755 1.591193,73.118549 2.568474,73.016434 c 0.9813478,-0.102542 1.2885089,0.147367 1.9376376,1.749704 1.0587586,2.61348 2.1333358,2.833674 9.5977344,2.108502 5.431713,-0.527719 5.710301,-0.516924 7.854592,0.159098 1.560291,0.491896 3.082191,0.671138 5.051888,0.601531 4.802824,-0.1699 22.643316,-1.282714 25.774263,-1.605859 1.804445,-0.186038 3.568945,-0.160111 4.496232,0.04099 1.236257,0.268177 1.738328,0.21619 2.811833,-0.172388 2.215955,-0.801965 4.310398,-0.831757 7.107032,-0.124585 1.669274,0.422111 3.755594,0.662457 5.589284,0.621969 2.489277,-0.05494 4.554966,0.281899 4.585433,0.694559 z"
       style="fill:#c8deec;fill-opacity:1" />
    <path
       transform="matrix(1.1400825,0,0,1.6625273,-7.7632598,-44.588293)"
       inkscape:connector-curvature="0"
       id="path4027-7"
       d="m 65.361051,76.073681 c -5.976191,-0.04152 -22.315881,-0.752006 -30.168037,-1.34375 -6.997622,-0.527348 -9.264429,-0.49615 -17.091166,0.15625 -3.593228,0.299513 -7.01405,0.490155 -7.602833,0.40625 -1.2394971,-0.176636 -1.4697278,-0.6875 -0.304113,-0.6875 0.433778,0 1.293061,-0.246483 1.885502,-0.5625 1.017481,-0.542736 1.25174,-0.576581 3.64936,-0.25 2.125893,0.289567 3.085003,0.288432 5.96062,-0.03125 2.505271,-0.278511 6.621028,-0.371668 15.32731,-0.34375 11.848253,0.03799 12.002091,0.06053 17.577747,0.90625 7.457714,1.131186 13.052133,1.336075 16.726231,0.625 1.698266,-0.328677 2.496414,-0.397392 2.189615,-0.1875 -0.86699,0.593152 -3.395792,1.104182 -6.264733,1.28125 -0.376653,0.02325 -1.031767,0.03718 -1.885503,0.03125 z"
       style="fill:#f9fbfd;fill-opacity:1;filter:url(#filter4860)" />
    <path
       inkscape:connector-curvature="0"
       id="path4027-2-1-8-5-1"
       d="m 76.875,3.1261141 c -1.598058,2.6372526 -3.120322,5.3461761 -4.65625,8.0318669 -0.505113,1.200376 -0.689586,2.587097 -0.46875,3.903035 0.501007,4.660383 1.155054,9.300319 1.3125,13.999318 0.09171,1.552436 0.243892,3.120588 0.28125,4.677191 0.350811,7.518599 0.839704,15.000935 1.25,22.515032 0.22218,5.826315 0.351324,11.68278 0.3125,17.515275 0.0074,1.338478 0.02133,2.66134 0.03125,3.999805 0.700275,0.744504 2.023484,1.563511 2.78125,0.516104 0.222836,-0.86297 -0.133608,-1.810367 0.03125,-2.709546 -0.05854,-4.133739 0.01262,-8.253766 -0.09375,-12.386493 0.06127,-2.980696 0.03005,-5.954415 0.03125,-8.935048 0.03768,-3.862069 0.0816,-7.751104 0.15625,-11.612337 0.03302,-3.573497 -0.09548,-7.135778 -0.125,-10.709155 -0.03011,-3.068636 -0.095,-6.124815 -0.09375,-9.193101 0.140546,-5.306296 0.431151,-10.60048 0.65625,-15.9024503 -0.101865,-1.043322 -0.06269,-2.1767687 -0.5,-3.1288798 C 77.580324,3.3544031 77.280926,2.9702141 76.875,3.1261141 z m 0.3125,81.2863599 c -0.0135,0.0038 -0.03601,0.04767 -0.0625,0.129026 0.08194,0.109917 0.103005,-0.140438 0.0625,-0.129026 z"
       style="fill:#e4f2fc;fill-opacity:1" />
    <path
       inkscape:connector-curvature="0"
       id="path4027-5-2"
       d="m 33.995642,9.0246359 c -0.387405,-0.021503 -2.633372,2.7831551 -5.052825,6.5389221 -3.595345,5.581177 -10.348293,17.64588 -10.310032,18.473489 0.01403,0.303349 -0.936467,3.038119 -2.168467,6.103833 -1.292771,3.216888 -2.067653,6.083693 -1.777303,6.711753 0.455005,0.984273 0.591899,0.905883 1.438577,-0.295463 0.514882,-0.730545 0.928077,-1.521401 0.913601,-1.834542 -0.01448,-0.313136 2.195202,-5.384172 4.836694,-11.214017 4.267581,-9.418679 6.706284,-14.319928 11.303944,-22.497453 0.747947,-1.3303104 0.991926,-1.9767498 0.815811,-1.9865221 z M 47.315459,8.5356057 c -0.287353,0.1988814 -0.890765,0.9111498 -1.815865,1.9510283 -1.51896,1.707427 -4.742059,6.154124 -7.075608,9.904053 -2.333549,3.749922 -4.712041,7.562437 -5.325117,8.502304 -2.0366,3.1222 -11.551832,23.025403 -11.503661,24.067388 0.08124,1.757398 1.962035,1.044908 2.764955,-1.054578 0.420843,-1.10046 3.075684,-6.13326 5.930937,-11.104461 2.855252,-4.971212 5.825134,-10.264301 6.536224,-11.754803 0.711089,-1.490506 3.227236,-6.166618 5.597406,-10.465688 3.749368,-6.80068 5.246992,-9.7323457 5.071902,-10.0529569 -0.02546,-0.048134 -0.08548,-0.058562 -0.181173,0.00771 z m 4.404724,4.9651883 c -0.136243,0.0058 -0.34936,0.366063 -0.859039,1.051505 -0.560646,0.753983 -2.171735,3.812208 -3.589032,6.788887 -1.417295,2.976678 -3.294507,6.301628 -4.103734,7.435375 -3.057205,4.283159 -8.960959,20.654859 -7.966652,22.043078 0.222314,0.310538 0.498874,0.525263 0.65932,0.518431 0.160592,-0.0068 1.761496,-3.187981 3.484038,-7.096705 1.72254,-3.908729 3.999423,-8.587849 5.148077,-10.368485 1.148654,-1.780642 2.32178,-3.948571 2.588447,-4.872572 0.266668,-0.923995 1.528056,-4.300795 2.741335,-7.455439 1.213279,-3.154642 2.164435,-6.310407 2.125241,-7.038852 -0.0364,-0.662193 -0.09146,-1.011036 -0.228001,-1.005223 z M 13.787822,48.998849 c -0.355769,0.04208 -0.767687,0.484233 -1.033004,1.215055 -1.248176,3.438297 -5.8150906,17.536903 -5.798718,17.891055 0.048287,1.044483 1.9251878,0.161817 2.5765774,-1.202701 1.0545796,-2.209092 4.9922046,-15.703442 4.9360786,-16.91747 -0.03216,-0.695643 -0.325191,-1.028009 -0.680934,-0.985939 z m 7.023997,6.649315 c -0.446898,0.09015 -1.106792,1.008089 -1.957414,2.815844 -2.073686,4.407035 -3.096675,8.156435 -2.488117,9.006092 0.27323,0.381481 1.298515,0.60339 2.289879,0.449006 1.689998,-0.263197 1.875887,-0.648882 2.541617,-5.885506 0.552844,-4.348693 0.358738,-6.535667 -0.385972,-6.385435 z M 16.58295,70.193379 c -1.258653,0.251278 -2.486214,1.94601 -2.374322,3.61431 0.07744,1.17256 0.424539,1.043979 2.13085,-1.027581 1.689344,-2.050957 1.819791,-2.451006 0.786992,-2.60987 -0.18049,-0.02779 -0.363707,-0.01275 -0.54352,0.02314 z m 63.598271,13.140779 c -0.450988,0.344086 -0.944274,0.663426 -1.406157,0.996727 0.759114,-0.03768 1.552107,-0.05682 2.264662,-0.09642 -0.310925,-0.284622 -0.594912,-0.586557 -0.858505,-0.900307 z"
       style="fill:#e5eff6;fill-opacity:1" />
    <path
       transform="matrix(-0.12743237,-2.5810288,-1.0161435,0.05016975,134.72045,99.470982)"
       inkscape:connector-curvature="0"
       id="path4027-1-2"
       d="m 9.1279168,51.458539 c -0.09264,0.600445 -0.046,1.05199 0.125,1.896454 0.34878,1.722711 0.62902,1.873176 1.1562502,0.474113 -0.22978,-0.40617 -0.4514302,-0.817575 -0.6875002,-1.219149 -0.22047,-0.37503 -0.4172,-0.769516 -0.59375,-1.151418 z m -0.09375,3.318794 c -0.0478,-0.0024 -0.07813,-0.02018 -0.125,0.06773 -0.29532,0.55419 -0.22425,18.559981 0.125,32.917026 0.41052,16.875871 0.44406,18.782011 0.40625,26.956741 -0.0407,8.79831 0.5146,13.7338 1.7812502,15.44256 0.24758,0.33399 1.02442,0.68719 1.75,0.81276 1.14259,0.19788 1.35038,0.17738 1.40625,-0.81276 0.0561,-0.99426 -0.15451,-1.29583 -1.46875,-1.89646 -2.14358,-0.97963 -2.35116,-2.05699 -1.96875,-9.61773 0.27829,-5.50182 0.26193,-5.78271 -0.34375,-7.92447 -0.44071,-1.55845 -0.6274002,-3.08882 -0.6250002,-5.07979 0.006,-4.85467 0.4180002,-22.904237 0.5937502,-26.076242 0.10113,-1.828102 0.03185,-3.608636 -0.15625,-4.537944 -0.25083,-1.23895 -0.22251,-1.747612 0.0625,-2.844682 0.58822,-2.264596 0.55499,-4.380139 -0.09375,-7.179433 -0.3872302,-1.670861 -0.6388102,-3.768976 -0.6562502,-5.621632 -0.0237,-2.515021 -0.35278,-4.589011 -0.6875,-4.605674 z"
       style="fill:#8ab7d7" />
    <path
       inkscape:connector-curvature="0"
       id="path4027-5"
       d="M 34.468712,9.0347776 C 34.088301,8.9957956 31.749563,11.774876 29.196744,15.522074 25.403215,21.09052 18.206032,33.17221 18.206032,34.022888 c 0,0.311804 -1.060198,3.075767 -2.412596,6.166936 -1.419106,3.243596 -2.312431,6.150679 -2.055174,6.807659 0.403143,1.029594 0.541479,0.955156 1.429686,-0.240271 0.540136,-0.726944 0.982909,-1.520201 0.982909,-1.842071 0,-0.321864 2.406162,-5.427501 5.271968,-11.292704 4.629982,-9.475806 7.253885,-14.397263 12.152333,-22.585407 0.796878,-1.332038 1.066489,-1.9845352 0.893554,-2.0022524 z m 13.135242,0.08009 C 47.312012,9.3063405 46.685552,10.01067 45.72749,11.03703 c -1.573083,1.685229 -4.948514,6.106122 -7.416496,9.851083 -2.467982,3.744955 -4.983058,7.552158 -5.62939,8.489549 -2.147074,3.113972 -12.420399,23.116179 -12.420399,24.187209 0,1.806384 1.884012,1.157618 2.770017,-0.961081 0.464392,-1.110531 3.307064,-6.1575 6.344233,-11.132524 3.037168,-4.975035 6.201835,-10.275262 6.96972,-11.773243 0.767884,-1.497985 3.457782,-6.185101 5.98681,-10.491803 4.000663,-6.81275 5.60846,-9.7548049 5.45068,-10.0913524 -0.02287,-0.050489 -0.08149,-0.063815 -0.178711,0 z m 4.110348,5.2859474 c -0.134391,0 -0.360595,0.360268 -0.893555,1.041171 -0.586256,0.748991 -2.311516,3.81592 -3.842281,6.807657 -1.530764,2.991738 -3.530153,6.320664 -4.378414,7.44838 -3.20467,4.260372 -9.761868,20.797506 -8.846183,22.265045 0.20473,0.328277 0.467222,0.560632 0.625488,0.560632 0.158409,0 1.879236,-3.19347 3.752926,-7.12802 1.873689,-3.934554 4.328175,-8.635206 5.540034,-10.411711 1.211859,-1.776512 2.465436,-3.949254 2.770017,-4.885497 0.30458,-0.936239 1.700068,-4.345252 3.038083,-7.528468 1.338015,-3.183213 2.418028,-6.379027 2.412596,-7.128018 -0.0057,-0.680903 -0.04403,-1.041171 -0.178711,-1.041171 z m -38.95895,34.7591 c -0.35216,0.02763 -0.777805,0.463223 -1.072264,1.201352 -1.38528,3.472678 -6.5229425,17.736336 -6.5229425,18.10036 0,1.073597 1.8879286,0.250086 2.5913064,-1.121261 1.1387455,-2.220148 5.6293881,-15.891411 5.6293881,-17.13928 0,-0.715033 -0.273355,-1.068791 -0.625488,-1.041171 z m 6.6123,7.128018 c -0.444061,0.07296 -1.135486,0.985812 -2.055175,2.803154 -2.242061,4.430407 -3.419809,8.232067 -2.859372,9.130272 0.251625,0.403277 1.25089,0.675704 2.233886,0.560629 1.675734,-0.196188 1.876291,-0.583727 2.770015,-5.926667 0.74218,-4.436982 0.650623,-6.688978 -0.08936,-6.567388 z M 14.54246,71.024511 c -1.250546,0.202801 -2.536176,1.887735 -2.50195,3.604055 0.02287,1.206259 0.370432,1.089514 2.144529,-0.961081 1.756456,-2.030199 1.903085,-2.434894 0.893554,-2.642974 -0.176423,-0.03639 -0.357479,-0.02896 -0.536133,0 z M 76.555099,87.2828 c -0.459645,0.333285 -0.959805,0.639337 -1.429686,0.961081 0.749041,-0.0055 1.530593,0.0095 2.233885,0 C 77.066155,87.93832 76.800319,87.616175 76.555099,87.2828 z"
       style="fill:#9acfef;fill-opacity:1" />
    <path
       id="path4027-2-1-8"
       d="m 79.497879,0.06329226 c -0.190936,0.01064342 -1.30949,6.62596744 -1.267115,7.50286074 0.04057,0.8396205 0.62595,0.1094596 0.922122,-1.1524562 0.403321,-1.7184769 0.649371,-6.3673642 0.344993,-6.35040454 z M 78.9826,9.6346532 c -0.09864,-0.09249 -0.261476,0.284349 -0.601481,1.0428338 -0.375768,0.838271 -1.67625,4.297861 -2.888006,7.684933 l -2.215762,6.179376 1.213997,2.960311 c 0.6821,1.621974 1.446578,3.755366 1.67394,4.769814 0.411069,1.834086 1.451447,30.892186 1.488024,41.390916 0.01549,4.446226 0.111788,5.22388 0.577129,5.197951 0.30307,-0.01688 0.631385,-0.333986 0.712046,-0.681969 0.08064,-0.347969 0.135888,-11.411276 0.110676,-24.688602 -0.02521,-13.277317 0.0103,-27.733052 0.08196,-32.027503 0.07167,-4.294454 0.0853,-8.759808 0.02879,-10.003036 -0.05136,-1.124882 -0.08262,-1.7325545 -0.18132,-1.8250248 z m -4.022402,6.3717978 c -0.254764,-0.0025 -0.716624,0.468523 -1.37323,1.452859 -1.409469,2.11298 -1.982369,3.732148 -1.631969,4.770501 0.508093,1.505648 1.239923,0.721872 2.434664,-2.613075 0.838905,-2.341688 0.995145,-3.605868 0.570535,-3.610285 z m 3.67269,65.401089 c -0.05258,2.41e-4 -0.113476,0.130783 -0.176906,0.193368 0.03074,0.0039 0.06211,-0.0096 0.09287,-0.0051 0.06152,0.0089 0.124284,-0.02125 0.185751,-0.01034 0.03126,0.0056 0.128553,0.0887 0.0973,0.08634 -0.05644,-0.174964 -0.114258,-0.264527 -0.199018,-0.264179 z m 0.199017,0.264178 c -0.08926,-0.0064 -0.361119,-0.170848 -0.283048,-0.07599 0.116036,0.141058 0.229575,0.303933 0.347174,0.439438 -0.02125,-0.13135 -0.03598,-0.275965 -0.06405,-0.363457 z"
       style="fill:#dbecf8;fill-opacity:1"
       inkscape:connector-curvature="0" />
    <path
       id="path4027-2-1-8-5"
       d="M 79.9375,-0.1875 C 79.83886,-0.29146438 79.683755,0.14741684 79.34375,1 78.967982,1.9422671 77.649256,5.8177256 76.4375,9.625 l -2.1875,6.9375 1.1875,3.34375 c 0.6821,1.823197 1.460138,4.203449 1.6875,5.34375 0.411069,2.061624 1.463423,34.730041 1.5,46.53125 0.01549,4.997828 0.09716,5.872895 0.5625,5.84375 0.30307,-0.01897 0.638089,-0.358846 0.71875,-0.75 C 79.98689,76.483862 80.025212,64.04952 80,49.125 79.97479,34.200491 80.02209,17.920973 80.09375,13.09375 80.16542,8.266523 80.18151,3.2724637 80.125,1.875 80.07364,0.61056471 80.0362,-0.08355699 79.9375,-0.1875 z m -4.03125,7.15625 c -0.254764,-0.00281 -0.718394,0.5185466 -1.375,1.625 -1.409469,2.375118 -1.9754,4.207829 -1.625,5.375 0.508093,1.69244 1.242759,0.811182 2.4375,-2.9375 0.838905,-2.6321998 0.98711,-4.057535 0.5625,-4.0625 z M 79.59375,80.5 c -0.05258,2.71e-4 -0.12407,0.1484 -0.1875,0.21875 0.03074,0.0044 0.06299,-0.03634 0.09375,-0.03125 0.116036,0.158558 0.226151,0.347684 0.34375,0.5 -0.02125,-0.147645 -0.03443,-0.307903 -0.0625,-0.40625 -0.04463,-0.0036 -0.118137,-0.05997 -0.1875,-0.09375 0.03106,-0.0057 0.06302,-0.0061 0.09375,0 0.03126,0.0063 0.125003,0.0964 0.09375,0.09375 C 79.72481,80.584579 79.67851,80.499609 79.59375,80.5 z"
       style="fill:#a6d0ee;fill-opacity:1"
       inkscape:connector-curvature="0" />
    <path
       inkscape:connector-curvature="0"
       id="path4027-1-2-7-6"
       d="m 81.76707,3.2088085 c -0.598333,-0.269231 -1.063111,-0.171506 -1.942999,0.227484 -1.794967,0.813783 -1.983573,1.529542 -0.62911,2.9605288 0.442008,-0.572692 0.8883,-1.1241368 1.32644,-1.7132938 0.409179,-0.550224 0.835103,-1.038199 1.245669,-1.474719 z m -3.360425,-0.408475 c 0.0085,-0.123252 0.03046,-0.200643 -0.05289,-0.326026 C 77.828248,1.6842745 59.522724,0.96436154 44.8894,1.1454965 27.68878,1.3584025 25.747594,1.3493395 17.445713,0.84162654 8.5105549,0.29516954 3.4246249,1.4808025 1.5268679,4.6643355 1.1559359,5.2865905 0.69803992,7.2739163 0.47797992,9.1403593 c -0.346677,2.9391307 -0.352325,3.4764717 0.64667898,3.6703487 1.003162,0.194677 1.336439,-0.333783 2.114242,-3.6957417 1.268606,-5.4834938 2.389811,-5.9652128 10.0238761,-4.5988818 5.555176,0.9943 5.842685,0.966166 8.096204,-0.489659 1.639769,-1.059299 3.218635,-1.464373 5.241441,-1.358292 4.932276,0.259044 23.220724,2.22797 26.42154,2.840725 1.844727,0.3527348 3.662834,0.2632498 4.631114,-0.175619 1.290915,-0.585241 1.80418,-0.486627 2.882641,0.3040318 2.226196,1.631827 4.380126,1.652195 7.307281,0.118219 1.74718,-0.9156258 3.911225,-1.4596988 5.796012,-1.4117648 2.558642,0.06501 4.708049,-0.680306 4.767635,-1.543392 z"
       style="fill:#d7e6f1;fill-opacity:1" />
    <path
       inkscape:connector-curvature="0"
       id="path4027-1-2-7"
       d="m 80.919612,1.8528766 c -0.598333,-0.269231 -1.063111,-0.171506 -1.942999,0.227484 -1.794967,0.813783 -1.983573,1.529542 -0.62911,2.960529 0.442008,-0.572692 0.8883,-1.124137 1.32644,-1.713294 0.409179,-0.550224 0.835103,-1.038199 1.245669,-1.474719 z m -3.360425,-0.408475 c 0.0085,-0.123252 0.03046,-0.200643 -0.05289,-0.326026 -0.525507,-0.79003296 -18.831031,-1.50994596 -33.464355,-1.32881096 -17.20062,0.212906 -19.141806,0.203843 -27.443687,-0.30387 C 7.6630972,-1.0607624 2.5771672,0.12487064 0.67941021,3.3084036 0.3084782,3.9306586 -0.1494178,5.9179846 -0.3694778,7.7844276 c -0.346677,2.9391304 -0.352325,3.4764714 0.646679,3.6703484 1.003162,0.194677 1.336439,-0.333783 2.114242,-3.6957414 1.268606,-5.483494 2.389811,-5.965213 10.0238758,-4.598882 5.555176,0.9943 5.842685,0.966166 8.096204,-0.489659 1.639769,-1.059299 3.218635,-1.464373 5.241441,-1.358292 4.932276,0.259044 23.220724,2.22797 26.42154,2.840725 1.844727,0.352735 3.662834,0.26325 4.631114,-0.175619 1.290915,-0.585241 1.80418,-0.486627 2.882641,0.304032 2.226196,1.631827 4.380126,1.652195 7.307281,0.118219 1.74718,-0.915626 3.911225,-1.459699 5.796012,-1.411765 2.558642,0.06501 4.708049,-0.680306 4.767635,-1.543392 z"
       style="fill:#8ab7d7" />
    <rect
       y="2.5778"
       x="1.1984861"
       height="74.545845"
       width="74.066444"
       id="rect5530"
       style="opacity:0.37168142;fill:#ffffff;fill-opacity:1;stroke:none" />
    <path
       transform="matrix(2.452173,0,0,2.124068,-78.672749,-60.589343)"
       d="m 57.767028,51.236336 c 0,5.162863 -2.790218,9.348191 -6.232127,9.348191 -3.441909,0 -6.232128,-4.185328 -6.232128,-9.348191 0,-5.162864 2.790219,-9.348192 6.232128,-9.348192 3.441909,0 6.232127,4.185328 6.232127,9.348192 z"
       sodipodi:ry="9.3481913"
       sodipodi:rx="6.2321277"
       sodipodi:cy="51.236336"
       sodipodi:cx="51.534901"
       id="path5532"
       style="fill:#ffffff;fill-opacity:1;stroke:none;filter:url(#filter5558)"
       sodipodi:type="arc" />
  </g>
</svg>
